<?xml version="1.0" standalone="no"?>
<!DOCTYPE svg PUBLIC "-//W3C//DTD SVG 20010904//EN"
 "http://www.w3.org/TR/2001/REC-SVG-20010904/DTD/svg10.dtd">
<svg version="1.0" xmlns="http://www.w3.org/2000/svg"
 width="1024.000000pt" height="1024.000000pt" viewBox="0 0 1024.000000 1024.000000"
 preserveAspectRatio="xMidYMid meet">
<metadata>
Created by potrace 1.14, written by Peter Selinger 2001-2017
</metadata>
<g transform="translate(0.000000,1024.000000) scale(0.100000,-0.100000)"
fill="#000000" stroke="none">
<path d="M5095 10203 c-22 -15 -40 -25 -40 -23 0 2 -11 -3 -25 -12 -65 -40
-236 -132 -242 -130 -5 1 -8 -2 -8 -6 0 -5 -33 -26 -72 -47 -40 -20 -80 -43
-88 -50 -8 -7 -33 -21 -55 -31 -22 -10 -43 -23 -47 -28 -5 -7 -8 -7 -8 -1 0 7
-3 7 -8 0 -8 -11 -25 -22 -122 -73 -36 -19 -77 -43 -92 -54 -14 -10 -28 -18
-31 -18 -3 0 -39 -20 -81 -45 -42 -24 -76 -41 -76 -37 0 4 -4 2 -8 -4 -4 -6
-32 -24 -62 -41 -30 -17 -122 -69 -205 -115 -82 -47 -170 -96 -195 -110 -25
-14 -63 -35 -85 -48 -22 -13 -65 -36 -95 -53 -30 -17 -67 -38 -81 -48 -14 -10
-29 -16 -33 -12 -3 3 -6 1 -6 -5 0 -7 -5 -12 -10 -12 -6 0 -27 -10 -48 -23
-34 -22 -99 -59 -182 -103 -19 -11 -37 -21 -40 -24 -3 -3 -18 -12 -35 -20 -16
-8 -41 -22 -55 -31 -14 -9 -50 -29 -80 -46 -30 -16 -92 -51 -137 -76 -45 -26
-87 -47 -93 -47 -5 0 -10 -4 -10 -10 0 -5 -4 -10 -9 -10 -8 0 -315 -171 -336
-187 -6 -4 -40 -23 -75 -42 -36 -19 -78 -43 -95 -52 -90 -53 -157 -89 -165
-89 -4 0 -10 -3 -12 -7 -4 -10 -76 -52 -100 -60 -10 -3 -18 -10 -18 -15 0 -5
-4 -7 -9 -4 -5 3 -14 -1 -21 -9 -7 -8 -16 -15 -20 -15 -5 0 -48 -23 -97 -51
-81 -47 -153 -87 -228 -128 -16 -9 -32 -18 -35 -21 -3 -3 -23 -15 -45 -27 -50
-26 -105 -57 -170 -95 -27 -16 -61 -34 -75 -41 -14 -6 -27 -14 -30 -17 -3 -3
-21 -14 -40 -24 -52 -26 -76 -40 -94 -55 -9 -7 -16 -10 -16 -7 0 4 -12 -1 -27
-12 -16 -10 -59 -36 -98 -58 -38 -21 -83 -46 -100 -56 -16 -9 -54 -30 -82 -45
-37 -19 -53 -34 -54 -48 -1 -11 -1 -663 0 -1450 0 -786 1 -1908 1 -2493 0
-585 -2 -1068 -5 -1073 -4 -5 -2 -9 2 -9 5 0 7 -16 5 -35 -3 -29 0 -36 19 -45
13 -5 31 -14 39 -19 26 -17 152 -87 245 -136 50 -26 96 -52 102 -58 7 -5 39
-23 70 -39 76 -39 117 -62 123 -68 5 -5 94 -53 175 -94 22 -12 42 -23 45 -26
3 -3 19 -12 35 -21 67 -37 168 -92 385 -212 30 -17 69 -38 85 -48 17 -10 46
-26 65 -36 19 -9 62 -33 95 -52 33 -19 61 -34 62 -33 2 1 27 -14 57 -33 30
-19 59 -35 63 -35 5 0 25 -11 45 -25 20 -14 44 -25 52 -25 9 0 16 -4 16 -9 0
-5 10 -13 22 -17 13 -4 25 -9 28 -13 3 -3 21 -14 40 -24 19 -9 49 -25 65 -35
17 -10 64 -36 105 -58 41 -21 77 -41 80 -44 3 -3 23 -14 45 -26 22 -12 63 -34
90 -49 209 -117 296 -165 300 -165 2 0 39 -20 81 -45 41 -25 78 -45 80 -45 2
0 22 -11 44 -25 22 -14 40 -22 40 -18 0 5 4 3 8 -3 4 -6 41 -29 83 -51 105
-56 121 -66 142 -82 9 -8 17 -10 17 -5 0 5 4 4 8 -1 4 -6 33 -24 64 -40 32
-17 58 -33 58 -37 0 -5 7 -8 15 -8 9 0 32 -11 53 -23 37 -24 145 -84 232 -129
25 -12 47 -25 50 -28 6 -6 57 -35 90 -52 14 -7 75 -40 137 -75 62 -35 116 -63
122 -63 5 0 11 -3 13 -7 2 -5 17 -15 33 -24 77 -39 140 -74 145 -79 3 -3 28
-17 55 -32 49 -25 95 -50 188 -102 26 -14 66 -37 90 -50 23 -13 62 -35 87 -49
l45 -25 100 53 c55 29 136 74 180 99 44 25 86 46 93 46 6 0 12 4 12 9 0 5 9
12 20 16 29 9 184 97 192 110 4 5 8 6 8 1 0 -4 11 -1 25 8 13 9 68 40 122 69
184 101 238 131 283 156 25 15 63 35 85 46 22 11 42 23 43 28 2 4 7 7 12 7 4
0 39 17 77 38 37 22 100 56 138 77 39 21 199 109 357 197 158 87 292 158 298
158 5 0 10 5 10 11 0 5 5 7 10 4 6 -3 10 -1 10 4 0 6 4 11 8 11 5 0 65 32 134
70 69 39 131 70 137 70 6 0 11 4 11 9 0 5 12 14 28 20 36 13 105 53 114 66 4
6 8 6 8 1 0 -5 6 -4 13 1 6 6 35 23 62 38 111 61 162 89 210 114 28 14 52 28
55 31 5 5 70 41 145 79 16 9 32 18 35 21 3 3 16 11 30 17 14 7 61 33 105 57
44 25 100 56 125 68 25 13 47 25 50 28 3 3 14 10 25 16 11 6 56 30 100 54 44
24 94 51 110 60 61 34 142 78 210 115 39 21 88 48 110 61 36 20 243 134 370
204 28 15 86 47 130 71 44 24 82 47 83 51 2 4 12 8 22 8 9 0 22 6 27 13 7 8 9
910 7 2567 -2 1405 -3 2562 -4 2571 0 10 -28 31 -70 53 -38 20 -72 41 -75 47
-4 5 -11 7 -16 4 -5 -4 -9 -1 -9 4 0 6 -4 11 -10 11 -5 0 -31 13 -58 29 -45
27 -107 61 -204 115 -20 12 -97 55 -170 97 -73 41 -140 78 -148 82 -8 4 -37
21 -65 37 -27 17 -66 38 -85 48 -19 9 -37 19 -40 22 -3 3 -14 10 -25 16 -61
33 -127 71 -185 104 -36 21 -68 37 -71 36 -4 0 -15 6 -25 14 -11 8 -28 20 -39
26 -42 23 -114 63 -225 126 -160 91 -189 107 -240 136 -25 13 -70 40 -101 58
-31 19 -61 34 -67 34 -6 0 -12 3 -14 8 -1 4 -19 15 -38 26 -32 17 -86 46 -185
102 -22 13 -60 34 -85 47 -25 13 -72 40 -105 61 -33 20 -66 36 -72 36 -7 0
-13 5 -13 10 0 6 -6 10 -14 10 -7 0 -19 7 -26 15 -7 8 -16 12 -21 9 -5 -3 -9
0 -9 5 0 6 -4 11 -9 11 -5 0 -85 43 -178 96 -92 53 -190 109 -217 123 -26 14
-56 31 -65 36 -9 6 -68 39 -131 74 -63 35 -125 70 -137 78 -13 7 -24 12 -25
11 -2 -2 -16 6 -33 18 -16 11 -77 47 -135 80 -58 32 -117 65 -132 74 -15 8
-63 35 -105 59 -43 24 -96 54 -118 66 -66 36 -90 50 -95 55 -3 3 -21 13 -40
24 -62 32 -145 78 -155 86 -5 4 -41 24 -80 45 -105 57 -110 60 -115 65 -3 3
-18 12 -35 20 -16 8 -54 29 -82 47 -29 18 -53 29 -53 25 0 -4 -4 -2 -8 3 -8
12 -48 35 -60 35 -4 0 -25 -12 -47 -27z m150 -573 c17 -9 55 -31 85 -47 30
-17 95 -53 144 -82 49 -28 90 -51 92 -51 2 0 38 -20 80 -45 41 -25 78 -45 80
-45 2 0 21 -10 42 -23 20 -13 68 -40 105 -61 63 -34 85 -47 170 -94 17 -11 59
-34 92 -53 33 -19 74 -42 90 -52 17 -9 42 -22 58 -28 15 -6 27 -14 27 -18 0
-3 20 -15 45 -26 25 -11 45 -23 45 -27 0 -5 6 -8 13 -8 7 0 19 -6 26 -12 6 -7
15 -13 19 -13 4 0 35 -17 70 -38 35 -20 65 -37 67 -37 3 0 34 -18 70 -40 36
-22 67 -40 69 -40 3 0 42 -22 88 -48 46 -26 90 -51 98 -55 8 -4 31 -17 50 -28
19 -12 136 -78 260 -147 124 -69 227 -130 228 -134 2 -4 12 -8 23 -8 10 0 19
-4 19 -9 0 -5 10 -13 22 -17 13 -4 39 -17 58 -29 19 -12 82 -48 140 -80 58
-33 177 -100 265 -149 88 -50 174 -98 190 -106 17 -8 32 -17 35 -20 3 -3 57
-34 120 -69 63 -36 133 -75 155 -88 22 -13 48 -26 58 -30 9 -3 17 -9 17 -14 0
-5 5 -9 11 -9 7 0 78 -38 158 -84 131 -74 201 -114 296 -165 17 -9 32 -19 35
-22 3 -3 32 -20 66 -38 l61 -32 1 -602 c1 -781 3 -3957 2 -3978 0 -9 -8 -19
-17 -22 -10 -3 -54 -26 -98 -51 -44 -25 -96 -54 -115 -63 -19 -9 -37 -20 -40
-23 -5 -6 -72 -42 -160 -87 -30 -15 -57 -30 -60 -33 -6 -6 -15 -11 -145 -80
-55 -30 -102 -56 -105 -59 -3 -3 -21 -14 -40 -23 -60 -30 -162 -88 -178 -101
-8 -6 -18 -11 -21 -11 -5 2 -97 -48 -161 -86 -8 -5 -46 -26 -85 -46 -38 -20
-74 -40 -80 -44 -5 -4 -41 -24 -80 -45 -38 -21 -115 -63 -170 -93 -55 -30
-129 -71 -165 -90 -36 -19 -81 -44 -100 -55 -19 -11 -60 -33 -90 -49 -30 -17
-113 -63 -185 -103 -71 -39 -155 -85 -185 -101 -30 -16 -57 -31 -60 -34 -3 -3
-23 -15 -45 -26 -68 -36 -168 -90 -205 -111 -19 -11 -60 -33 -90 -50 -142 -78
-349 -192 -418 -231 -42 -24 -85 -46 -94 -49 -10 -3 -18 -9 -18 -13 0 -4 -12
-11 -27 -15 -16 -3 -35 -12 -43 -19 -13 -12 -49 -32 -220 -122 -19 -11 -37
-21 -40 -25 -3 -3 -21 -13 -40 -22 -19 -10 -57 -30 -85 -46 -27 -15 -81 -45
-120 -66 -38 -21 -73 -43 -77 -49 -4 -6 -8 -7 -8 -2 0 4 -10 2 -22 -6 -99 -64
-198 -105 -198 -80 0 4 -13 13 -29 20 -29 13 -151 80 -436 238 -22 13 -71 39
-110 60 -38 20 -73 41 -76 46 -3 5 -12 10 -20 12 -8 1 -41 17 -74 36 -33 20
-73 42 -90 50 -16 8 -32 17 -35 20 -3 3 -23 15 -45 27 -84 45 -120 65 -132 75
-7 6 -13 7 -13 3 0 -5 -8 -2 -17 6 -10 8 -27 19 -38 25 -11 6 -86 47 -167 92
-80 45 -150 82 -154 82 -4 0 -15 6 -23 14 -9 8 -50 31 -91 52 -41 21 -77 41
-80 44 -5 6 -153 87 -215 118 -16 9 -32 18 -35 21 -3 3 -21 14 -40 23 -19 10
-60 31 -90 49 -30 17 -82 46 -115 64 -33 18 -78 42 -100 55 -22 12 -58 32 -80
43 -22 12 -42 24 -45 27 -3 3 -25 15 -50 28 -88 46 -125 67 -138 80 -7 6 -22
12 -32 12 -10 0 -20 4 -22 8 -1 5 -32 24 -68 44 -121 65 -264 144 -305 168
-16 9 -55 31 -85 47 -30 17 -75 41 -100 55 -41 23 -137 76 -185 102 -11 6 -22
13 -25 16 -3 3 -21 13 -40 22 -19 10 -64 34 -100 54 -36 20 -99 55 -140 77
-41 22 -79 43 -85 47 -5 4 -39 23 -75 43 -36 19 -94 51 -130 71 -36 20 -74 41
-85 47 -20 10 -20 21 -22 2287 l-1 2277 86 48 c48 26 119 66 157 88 39 23 95
54 125 71 30 16 71 39 90 51 19 11 60 35 91 51 55 30 242 136 324 183 22 13
52 29 68 35 15 7 27 16 27 20 0 4 5 8 10 8 6 0 46 20 88 44 42 25 81 45 86 45
5 -1 12 3 15 9 7 10 81 53 179 103 34 18 62 36 62 41 0 4 5 8 11 8 10 0 55 24
234 128 22 13 52 28 68 35 15 6 27 15 27 19 0 4 4 8 9 8 5 0 40 18 78 39 37
21 149 84 248 140 99 56 187 106 195 111 8 5 33 19 55 30 22 11 63 34 90 51
28 16 66 37 85 47 19 9 37 20 40 23 3 3 32 20 65 38 130 71 401 225 427 242
15 11 34 19 41 19 8 0 20 6 26 14 7 8 38 27 69 42 31 16 59 31 62 34 5 5 40
25 100 57 19 10 37 20 40 23 3 3 23 14 45 25 22 11 42 22 45 26 3 3 46 28 95
54 50 27 106 58 125 70 19 12 71 41 115 65 44 23 87 48 95 54 8 7 29 18 45 26
17 8 54 29 84 47 l53 31 37 -20 c20 -11 50 -28 66 -38z"/>
<path d="M3718 7473 c-17 -38 -72 -181 -135 -348 -18 -49 -38 -99 -43 -110 -5
-11 -21 -51 -35 -90 -15 -38 -33 -83 -40 -100 -7 -16 -19 -48 -26 -70 -7 -22
-17 -45 -21 -51 -5 -7 -10 -20 -13 -30 -2 -11 -17 -52 -34 -91 -16 -40 -28
-73 -25 -73 2 0 -3 -11 -12 -25 -9 -14 -13 -25 -10 -25 4 0 0 -12 -8 -27 -7
-16 -44 -107 -81 -203 -108 -281 -155 -404 -164 -425 -5 -11 -31 -76 -56 -145
-26 -69 -54 -139 -61 -155 -8 -17 -16 -40 -18 -52 -3 -11 -9 -29 -15 -39 -6
-11 -38 -91 -72 -179 -34 -88 -66 -171 -72 -185 -5 -14 -11 -29 -13 -35 -3
-15 -144 -375 -161 -414 -8 -18 -16 -39 -17 -45 -1 -6 -10 -28 -19 -50 -9 -21
-17 -44 -17 -50 0 -7 -7 -21 -15 -32 -8 -10 -15 -29 -15 -41 0 -13 -4 -23 -8
-23 -5 0 -9 -6 -9 -12 0 -11 -45 -130 -82 -223 -5 -11 -21 -51 -36 -90 -14
-38 -33 -86 -42 -105 -8 -19 -17 -42 -19 -50 -4 -17 -270 -704 -284 -735 -5
-11 -28 -69 -51 -130 -23 -60 -55 -144 -70 -185 -16 -41 -29 -76 -29 -78 0 -1
15 5 33 15 17 9 37 18 42 19 14 3 227 94 245 105 8 5 22 12 30 15 59 22 245
101 383 163 38 17 74 31 81 31 6 0 16 4 22 9 13 12 246 111 262 111 6 0 12 5
12 10 0 6 6 10 13 10 11 0 206 81 312 130 11 5 32 14 48 20 16 5 27 17 27 28
0 10 4 22 9 27 4 6 39 87 76 180 37 94 74 183 81 199 8 16 14 33 14 38 0 4 8
27 19 51 10 23 28 65 40 94 11 28 26 64 33 80 6 15 12 34 14 41 1 6 11 31 22
55 21 45 33 76 38 92 1 6 15 42 32 80 32 76 40 97 39 105 0 3 6 16 13 30 8 14
15 30 16 35 2 8 68 172 109 270 5 11 9 22 10 25 6 16 20 51 41 99 13 29 24 58
24 63 0 5 11 34 25 64 14 30 25 56 25 59 0 2 5 16 12 32 6 15 12 30 13 33 1 3
6 16 12 30 6 14 30 72 52 130 23 58 46 114 51 125 6 11 16 38 24 60 8 22 31
78 50 125 20 46 36 88 36 92 0 4 11 31 24 60 23 51 31 71 36 93 1 6 10 26 20
45 l18 35 -293 660 c-161 363 -308 692 -325 730 -18 39 -39 89 -48 113 -9 23
-19 42 -22 42 -3 0 -13 -17 -22 -37z"/>
<path d="M6480 7473 c-10 -27 -14 -37 -38 -93 -6 -14 -18 -43 -28 -65 -9 -22
-25 -60 -36 -85 -11 -25 -24 -56 -30 -70 -13 -33 -31 -75 -57 -132 -12 -26
-21 -50 -21 -52 0 -2 -8 -21 -17 -42 -9 -22 -17 -41 -18 -44 -1 -3 -10 -23
-19 -45 -10 -22 -38 -87 -62 -145 -25 -58 -49 -114 -54 -125 -11 -24 -42 -98
-45 -105 -1 -3 -6 -16 -12 -30 -6 -14 -28 -65 -48 -115 -21 -49 -47 -112 -60
-140 -63 -144 -89 -210 -88 -225 1 -9 11 -38 23 -63 12 -25 23 -52 24 -59 2
-7 8 -24 13 -38 6 -14 54 -133 107 -265 53 -132 100 -249 105 -260 5 -11 26
-63 46 -115 20 -52 42 -108 49 -125 7 -16 23 -55 36 -85 12 -30 26 -63 31 -72
5 -10 9 -22 9 -28 0 -5 11 -34 25 -64 14 -30 25 -58 25 -61 0 -3 8 -25 19 -48
10 -23 40 -96 65 -162 26 -66 51 -129 56 -140 5 -11 23 -56 40 -100 18 -44 36
-89 40 -100 5 -11 20 -47 33 -80 13 -33 28 -69 32 -80 5 -11 9 -22 10 -25 5
-15 50 -126 70 -175 7 -16 25 -61 40 -100 15 -38 33 -83 40 -100 7 -16 27 -66
45 -111 29 -75 35 -82 73 -99 23 -10 80 -36 127 -57 47 -22 90 -41 95 -42 6
-2 50 -21 98 -44 49 -23 90 -42 92 -42 1 0 42 -18 91 -41 80 -37 131 -60 144
-64 13 -4 148 -67 172 -81 15 -8 29 -14 30 -13 3 1 69 -26 100 -42 9 -4 81
-37 160 -72 79 -36 168 -76 198 -90 30 -14 73 -33 95 -43 22 -10 43 -20 47
-22 4 -2 3 9 -1 25 -9 28 -94 251 -110 288 -5 11 -21 52 -36 90 -15 39 -33 84
-40 100 -21 48 -95 241 -95 248 0 4 -11 31 -25 61 -14 30 -25 57 -25 61 0 3
-7 22 -16 43 -10 20 -18 42 -19 47 -2 6 -19 53 -40 105 -34 88 -42 109 -66
165 -5 11 -28 72 -53 135 -48 126 -153 393 -166 425 -13 30 -75 189 -76 195 0
3 -5 16 -11 30 -6 14 -32 79 -57 145 -26 66 -50 129 -55 140 -20 47 -74 181
-76 190 -1 6 -7 21 -12 35 -6 14 -19 45 -28 70 -30 80 -28 75 -79 198 -14 34
-23 62 -19 62 3 0 1 6 -5 13 -5 6 -41 93 -79 192 -38 99 -73 189 -78 200 -5
11 -9 22 -10 25 -1 3 -7 19 -14 35 -6 17 -38 98 -71 180 -32 83 -87 224 -123
315 -36 91 -81 208 -102 260 -20 52 -70 181 -111 285 -42 105 -85 215 -96 245
-31 80 -58 140 -63 140 -3 0 -10 -12 -15 -27z"/>
<path d="M5082 5537 c-17 -45 -40 -107 -52 -137 -12 -30 -22 -60 -24 -66 -2
-10 -43 -121 -117 -314 -16 -41 -72 -192 -124 -335 -53 -143 -100 -268 -105
-277 -6 -10 -10 -23 -10 -29 0 -6 -6 -25 -14 -42 -7 -18 -19 -45 -25 -62 -6
-16 -16 -43 -22 -60 -7 -16 -13 -34 -15 -40 -9 -32 -31 -86 -37 -91 -4 -4 -7
-13 -7 -20 0 -7 -5 -25 -12 -41 -17 -42 -47 -128 -45 -129 3 -2 388 161 452
191 28 13 86 39 131 57 l81 34 59 -28 c32 -15 62 -28 66 -28 4 0 38 -14 75
-31 95 -44 117 -52 126 -51 4 1 7 -3 7 -8 0 -5 3 -9 8 -8 8 1 11 0 142 -57
147 -64 152 -66 147 -58 -10 17 -99 259 -100 271 0 6 -4 12 -9 12 -4 0 -8 6
-8 13 0 6 -13 46 -29 87 -73 189 -83 216 -86 225 -1 6 -8 24 -14 40 -7 17 -14
35 -15 40 -2 6 -8 24 -15 40 -7 17 -21 53 -31 80 -42 116 -55 150 -60 155 -3
3 -6 12 -8 20 -2 8 -32 92 -68 185 -36 94 -67 177 -69 185 -6 24 -64 173 -75
192 -6 10 -10 27 -10 37 0 11 -4 22 -9 25 -4 3 -14 26 -21 51 -7 25 -16 48
-20 50 -4 3 -21 -32 -38 -78z"/>
</g>
</svg>
