<svg xmlns="http://www.w3.org/2000/svg" preserveAspectRatio="none" viewBox="0 0 512 359" class="noi noi-frame-scifi"><path fill="currentColor" d="m401.6 1.2-5 2.9h-12.9l-11.3 11.3h-24.5l-5.7-1.5h-25.4l-12.6 7.3H203.9l-7-7h-28l-2.7 1.5h-25.1L129.2 4h-10l-3.4-2h-9.5l-5 2.8H42.9L8.2 39.2v42.6L4.4 84v27.5l-2.6.7V129l13.6 13.6v49.3l4.5 4.3v17.3L2.2 231v35.1l3.6 3.6v30.6l2.8.8v16.2l15.9 16-1.3 4.6 20.4 20.4h25.5l2.2-1.3h38.5l5.6-5.6h13.3l1-3.7 4.7 1.3 4.8-8.4h55l6.4-3.6h7.4l3.6 2h26l3.2-1.8h31.4l6.1 1.7h23.5l3.1-3.2h11.9v7H374l3.6 3.7 7.5 2 3.7 3.7h10.5l3.7 3.7h38l1.7 1.8h27.4l20.4-20.4-1.7-3 14.7-14.6v-18l4.4-4.3v-28.5l3-3V231l-16.7-16.6v-17.7l4.6-4.5v-49.7l12.8-12.8v-14.4l-4.7-4.7V88.7l-2.5-4.3V39.7L471.3 6.5h-58.2l-5.3-5.3zM91.2 8h32.6l11.8 11.8h50.7l9.1 9.1H227l2-3.4h52.7l4.5 4.4h28.3l10-10h55.3l9-9h37.5l3 3h44l6.8 7-4 2.3-4.8-4.7H452l-6.4 3.7h-36.9v7.4h-38.2l-2-2h-18.3l-6.8 6.8h-49.3l1 4H347l6.6-6.5h13l3.8 3.9h6.6l2.1-3.7h14.4l2.9 5H426l5.6-5.6h22.2l8.8-8.8 2.1 3.6-1.7 2.8 9.9 9.9 8.4-8.5 15.2 15.2v59.6l4.5 4.5v17.3L490.1 138v82l10.6 10.6v82.7l-21 21v4.2l-9.6 9.7h-78l-13-13L366 339l-4.6-2.6h-34.3l-8-8h-23.8v4.6h-72.8l-5-5h-24l-6.9 6.9H148l-.6 2.3H134l-10.5 10.5H43.9l-11.7-11.8 1.2-4.5-20.1-20V230l9.8-9.8V138l-9.3-12.4V44.3l15.6-15.6L39.8 37l7.5-4.8 2.4-9H56l4.2 7.4h19l6.5 6.4h32.9v-5.7h16.3l4.8 4.7h9.3l-2.7-4.8h13.1l1.8 6.8h58v-3.2h-51.4l-2.1-8h-21.3l-1.6 2.8h-38.4V23H63.9l-1-3.8H46.4l-7.1 4.2-8.7-2.3 11.2-6.5h43z"/><path fill="none" stroke="currentColor" stroke-linecap="round" stroke-linejoin="round" stroke-width="3" d="M374 324.2h-37.5l-7.3-5.5h-46.9l-12.5 7h-33l-8.4-7h-44.6l-8 5.5-36.1.2"/><path fill="none" stroke="currentColor" stroke-linecap="round" stroke-linejoin="round" stroke-width=".7" d="M492 68.3v52.8l-14 14v17.6m.1 54.7v-28.8l5.3-1.5V222l10.5 14.2-21.8.4 4 6.2.7 55 4.9.8-.8 15.2"/><g fill="none" stroke="currentColor" stroke-linecap="round" stroke-width=".4"><circle cx="32" cy="47.4" r="4.4"/><circle cx="32" cy="47.4" r="4.4"/><circle cx="32" cy="47.4" r="3.1"/><circle cx="32" cy="47.4" r="1.9"/><circle cx="32" cy="47.4" r=".9"/></g><g fill="none" stroke="currentColor" stroke-linecap="round" stroke-width=".4" transform="translate(424 284.4)"><circle cx="32" cy="47.4" r="4.4"/><circle cx="32" cy="47.4" r="4.4"/><circle cx="32" cy="47.4" r="3.1"/><circle cx="32" cy="47.4" r="1.9"/><circle cx="32" cy="47.4" r=".9"/></g></svg>